<svg width="16" height="17" viewBox="0 0 16 17" fill="none" xmlns="http://www.w3.org/2000/svg">
<path d="M8.00016 1.38098C8.75792 1.38098 9.48465 1.682 10.0205 2.21782C10.5563 2.75364 10.8573 3.48036 10.8573 4.23812V6.14289C10.8573 6.90065 10.5563 7.62737 10.0205 8.16319C9.48465 8.69901 8.75792 9.00003 8.00016 9.00003C7.2424 9.00003 6.51567 8.69901 5.97986 8.16319C5.44404 7.62737 5.14302 6.90065 5.14302 6.14289V4.23812C5.14302 3.48036 5.44404 2.75364 5.97986 2.21782C6.51567 1.682 7.2424 1.38098 8.00016 1.38098V1.38098ZM14.6668 14.7143V14.021C14.6668 10.9857 11.1564 9.00003 8.00016 9.00003C4.84397 9.00003 1.3335 10.9857 1.3335 14.021V14.7143C1.3335 14.9669 1.43384 15.2091 1.61244 15.3877C1.79105 15.5664 2.03329 15.6667 2.28588 15.6667H13.7144C13.967 15.6667 14.2093 15.5664 14.3879 15.3877C14.5665 15.2091 14.6668 14.9669 14.6668 14.7143Z" stroke="black" stroke-linecap="round" stroke-linejoin="round"/>
</svg>
