<svg width="18" height="17" viewBox="0 0 18 17" fill="none" xmlns="http://www.w3.org/2000/svg">
<path d="M3.68734 1.54167C3.16243 1.54167 2.65902 1.75019 2.28786 2.12135C1.91669 2.49252 1.70817 2.99593 1.70817 3.52083V9.97917C1.70817 10.5041 1.91669 11.0075 2.28786 11.3786C2.65902 11.7498 3.16243 11.9583 3.68734 11.9583H5.0415V15.2242L9.66775 11.9583H14.3123C14.8372 11.9583 15.3407 11.7498 15.7118 11.3786C16.083 11.0075 16.2915 10.5041 16.2915 9.97917V3.52083C16.2915 2.99593 16.083 2.49252 15.7118 2.12135C15.3407 1.75019 14.8372 1.54167 14.3123 1.54167H3.68734ZM0.666504 3.52083C0.666504 2.71966 0.984769 1.9513 1.55129 1.38478C2.1178 0.818266 2.88616 0.5 3.68734 0.5H14.3123C15.1135 0.5 15.8819 0.818266 16.4484 1.38478C17.0149 1.9513 17.3332 2.71966 17.3332 3.52083V9.97917C17.3332 10.7803 17.0149 11.5487 16.4484 12.1152C15.8819 12.6817 15.1135 13 14.3123 13H9.99859L5.47775 16.1908C4.85692 16.6292 3.99984 16.185 3.99984 15.425V13H3.68734C2.88616 13 2.1178 12.6817 1.55129 12.1152C0.984769 11.5487 0.666504 10.7803 0.666504 9.97917V3.52083Z" fill="black"/>
</svg>
