<svg width="18" height="18" viewBox="0 0 18 18" fill="none" xmlns="http://www.w3.org/2000/svg">
<path d="M15.2501 2.33341H12.7501V1.08341C12.7501 0.972908 12.7062 0.866927 12.628 0.788787C12.5499 0.710647 12.4439 0.666748 12.3334 0.666748C12.2229 0.666748 12.1169 0.710647 12.0388 0.788787C11.9606 0.866927 11.9167 0.972908 11.9167 1.08341V2.33341H6.08342V1.08341C6.08342 0.972908 6.03952 0.866927 5.96138 0.788787C5.88324 0.710647 5.77726 0.666748 5.66675 0.666748C5.55624 0.666748 5.45026 0.710647 5.37212 0.788787C5.29398 0.866927 5.25008 0.972908 5.25008 1.08341V2.33341H2.75008C2.19775 2.33408 1.66823 2.55378 1.27767 2.94434C0.887116 3.3349 0.66741 3.86442 0.666748 4.41675V15.2501C0.66741 15.8024 0.887116 16.3319 1.27767 16.7225C1.66823 17.113 2.19775 17.3328 2.75008 17.3334H15.2501C15.8025 17.333 16.3321 17.1133 16.7227 16.7227C17.1133 16.3321 17.333 15.8025 17.3334 15.2501V4.41675C17.333 3.86435 17.1133 3.3347 16.7227 2.9441C16.3321 2.55349 15.8025 2.33386 15.2501 2.33341ZM16.5001 15.2501C16.5001 15.9401 15.9401 16.5001 15.2501 16.5001H2.75008C2.05841 16.5001 1.50008 15.9401 1.50008 15.2501V8.16675H16.5001V15.2501ZM16.5001 7.33342H1.50008V4.41675C1.50008 3.72675 2.05841 3.16675 2.75008 3.16675H5.25008V4.41675C5.25008 4.52726 5.29398 4.63324 5.37212 4.71138C5.45026 4.78952 5.55624 4.83342 5.66675 4.83342C5.77726 4.83342 5.88324 4.78952 5.96138 4.71138C6.03952 4.63324 6.08342 4.52726 6.08342 4.41675V3.16675H11.9167V4.41675C11.9167 4.52726 11.9606 4.63324 12.0388 4.71138C12.1169 4.78952 12.2229 4.83342 12.3334 4.83342C12.4439 4.83342 12.5499 4.78952 12.628 4.71138C12.7062 4.63324 12.7501 4.52726 12.7501 4.41675V3.16675H15.2501C15.9401 3.16675 16.5001 3.72675 16.5001 4.41675V7.33342Z" fill="black"/>
</svg>
