<svg width="18" height="22" viewBox="0 0 18 22" fill="none" xmlns="http://www.w3.org/2000/svg">
<path fill-rule="evenodd" clip-rule="evenodd" d="M0.650391 13.3334C0.650391 11.2623 2.32932 9.58337 4.40039 9.58337H13.6004C15.6715 9.58337 17.3504 11.2623 17.3504 13.3334V15.6667C17.3504 19.0264 14.6268 21.75 11.2671 21.75H6.73372C3.37399 21.75 0.650391 19.0264 0.650391 15.6667V13.3334ZM4.40039 11.0834C3.15775 11.0834 2.15039 12.0907 2.15039 13.3334V15.6667C2.15039 18.198 4.20242 20.25 6.73372 20.25H11.2671C13.7984 20.25 15.8504 18.198 15.8504 15.6667V13.3334C15.8504 12.0907 14.843 11.0834 13.6004 11.0834H4.40039Z" fill="black" fill-opacity="0.2"/>
<path fill-rule="evenodd" clip-rule="evenodd" d="M8.99998 17.9001C8.50292 17.9001 8.09998 17.4972 8.09998 17.0001L8.09998 14.3335C8.09998 13.8364 8.50292 13.4335 8.99998 13.4335C9.49703 13.4335 9.89998 13.8364 9.89998 14.3335L9.89998 17.0001C9.89998 17.4972 9.49703 17.9001 8.99998 17.9001Z" fill="black" fill-opacity="0.2"/>
<path fill-rule="evenodd" clip-rule="evenodd" d="M6.9715 2.59587C6.46405 3.02841 6.10017 3.68694 6.10017 4.64389V9.66664C6.10017 10.1637 5.69723 10.5666 5.20017 10.5666C4.70311 10.5666 4.30017 10.1637 4.30017 9.66664V4.64389C4.30017 3.17152 4.88629 2.00808 5.80384 1.22599C6.70211 0.460328 7.86835 0.099962 9.00018 0.0999756C10.132 0.0999892 11.2982 0.460383 12.1965 1.22605C13.114 2.00815 13.7002 3.17158 13.7002 4.64392V9.66664C13.7002 10.1637 13.2972 10.5666 12.8002 10.5666C12.3031 10.5666 11.9002 10.1637 11.9002 9.66664V4.64392C11.9002 3.68701 11.5363 3.02848 11.0288 2.59592C10.5021 2.14694 9.76833 1.89999 9.00016 1.89998C8.23199 1.89997 7.49823 2.1469 6.9715 2.59587Z" fill="black" fill-opacity="0.2"/>
</svg>
