<svg width="21" height="21" viewBox="0 0 21 21" fill="none" xmlns="http://www.w3.org/2000/svg">
<path fill-rule="evenodd" clip-rule="evenodd" d="M9.99995 1.75C8.04723 1.75 6.46423 3.33299 6.46423 5.28571C6.46423 7.23844 8.04723 8.82143 9.99995 8.82143C11.9527 8.82143 13.5357 7.23844 13.5357 5.28571C13.5357 3.33299 11.9527 1.75 9.99995 1.75ZM4.96423 5.28571C4.96423 2.50457 7.2188 0.25 9.99995 0.25C12.7811 0.25 15.0357 2.50457 15.0357 5.28571C15.0357 8.06686 12.7811 10.3214 9.99995 10.3214C7.2188 10.3214 4.96423 8.06686 4.96423 5.28571Z" fill="black" fill-opacity="0.2"/>
<path fill-rule="evenodd" clip-rule="evenodd" d="M2.30995 15.1661C3.86719 13.5023 6.3998 12.25 10.2861 12.25C14.1724 12.25 16.705 13.5023 18.2622 15.1661C19.7998 16.8088 20.3218 18.7847 20.3218 20.1429C20.3218 20.5571 19.986 20.8929 19.5718 20.8929H1.00037C0.586153 20.8929 0.250366 20.5571 0.250366 20.1429C0.250366 18.7847 0.772322 16.8088 2.30995 15.1661ZM1.81415 19.3929H18.758C18.6019 18.4301 18.1404 17.2309 17.1671 16.1911C15.9386 14.8786 13.8284 13.75 10.2861 13.75C6.74379 13.75 4.63355 14.8786 3.40507 16.1911C2.43179 17.2309 1.97022 18.4301 1.81415 19.3929Z" fill="black" fill-opacity="0.2"/>
</svg>
